<svg width="151" height="120" viewBox="0 0 151 120" fill="none" xmlns="http://www.w3.org/2000/svg">
<path d="M36.5908 90.5078C36.5908 92.5078 35.0908 95.5078 34.5908 97.0078L34.5908 100.508C34.5908 102.508 36.5908 105.008 37.5908 106.008C45.0908 114.008 57.5908 116.508 77.5908 119.008C83.5651 119.755 111.591 119.508 126.091 116.008C140.591 112.508 147.591 105.508 150.091 102.008C152.091 99.2078 150.257 85.5078 149.091 79.0078C147.591 73.6745 141.491 60.0078 129.091 48.0078C113.591 33.0078 85.5908 33.0078 83.5908 33.0078C81.5908 33.0078 63.0908 32.5078 50.0908 39.5078C37.0908 46.5078 32.0908 60.0078 32.0908 66.5078C31.5908 71.0078 33.2575 79.5078 34.5908 83.0078C35.2575 84.6745 36.5908 88.5078 36.5908 90.5078Z" fill="#FBC21B"/>
<path d="M0.111046 13.8102C-2.28895 26.6102 34.9443 54.8103 41.111 57.8103L69.6111 42.3103C55.6111 27.9103 8.11102 6.81018 0.111046 13.8102Z" fill="#FBC21B"/>
<path d="M59.111 0.310168C56.711 13.1102 86.9444 39.3101 93.111 42.3101L119.111 40.8101C105.111 26.4101 66.111 -3.3565 59.111 0.310168Z" fill="#FBC21B"/>
<path d="M8.11102 19.3102C9.31102 30.5102 30.111 47.4768 42.111 54.3102C43.2777 51.6435 49.511 45.4102 59.111 37.8102C26.711 19.0102 12.7777 17.6435 8.11102 19.3102Z" fill="#FF9B9B"/>
<path d="M64.1111 3.8102C64.0108 11.4937 76.0792 27.544 86.111 33.8102C90.111 32.8102 103.611 34.3102 114.611 37.8102C89.111 17.3102 68.4662 3.3455 64.1111 3.8102Z" fill="#FF9B9B"/>
<path opacity="0.9" d="M91 66C91 71.5228 87.6944 75.5 83 75.5C79.5 75.5 74.5 71.0228 74.5 65.5C74.5 59.9772 77.3056 55.5 82 55.5C86.6944 55.5 91 60.4772 91 66Z" fill="black"/>
<path opacity="0.9" d="M131 59C131 64.5228 128.5 67 124 67.5C120.521 67.8865 114.5 63.5228 114.5 58C114.5 52.4772 116.806 49 121.5 49C126.194 49 131 53.4772 131 59Z" fill="black"/>
<path d="M111.351 51.3687C111.544 51.6632 111.94 51.745 112.234 51.5514L121.566 45.417C121.861 45.2234 121.942 44.8277 121.749 44.5332C121.555 44.2387 121.16 44.1569 120.865 44.3505L111.533 50.4849C111.239 50.6785 111.157 51.0742 111.351 51.3687Z" fill="#191303"/>
<path d="M88.8297 52.663C88.7359 53.0028 88.3233 53.1852 87.9081 53.0706L74.7518 49.4378C74.3366 49.3232 74.076 48.9549 74.1698 48.6151C74.2637 48.2754 74.6763 48.0929 75.0915 48.2076L88.2478 51.8403C88.663 51.955 88.9235 52.3233 88.8297 52.663Z" fill="#191303"/>
<path d="M90 89C90 87.8954 90.8954 87 92 87H127C128.105 87 129 87.8954 129 89C129 90.1046 128.105 91 127 91H92C90.8954 91 90 90.1046 90 89Z" fill="#191303"/>
</svg>
